<?xml version="1.0" encoding="utf-8"?>
<!-- Generator: Adobe Illustrator 17.0.0, SVG Export Plug-In . SVG Version: 6.00 Build 0)  -->
<!DOCTYPE svg PUBLIC "-//W3C//DTD SVG 1.1//EN" "http://www.w3.org/Graphics/SVG/1.1/DTD/svg11.dtd">
<svg version="1.1" id="Layer_1" xmlns="http://www.w3.org/2000/svg" xmlns:xlink="http://www.w3.org/1999/xlink" x="0px" y="0px"
	 width="2000px" height="2000px" viewBox="0 0 2000 2000" enable-background="new 0 0 2000 2000" xml:space="preserve">
<g>
	<g>
		<path fill="#292C38" d="M275.417,1316.107c11.697,0,19.825,1.934,24.389,5.801c4.561,3.867,6.842,9.272,6.842,16.21
			c0,3.174-0.497,6.944-1.487,11.303l-6.842,27.96c-2.577,10.115-8.132,18.791-16.657,26.029
			c-8.528,7.241-20.031,10.856-34.504,10.856H116.874l2.974-33.611c6.145,3.174,11.749,5.307,16.807,6.395
			c5.058,1.093,13.333,1.637,24.836,1.637h59.193c3.571,0,6.145-0.544,7.735-1.637c1.584-1.088,2.774-3.021,3.568-5.801l0.596-2.974
			c0-0.394,0.097-0.99,0.297-1.784l0.297-1.19c0-2.974-2.677-4.461-8.032-4.461h-60.977c-11.502,0-19.534-1.934-24.092-5.801
			c-4.564-3.867-6.842-9.269-6.842-16.21c0-3.171,0.494-7.039,1.487-11.602l6.545-27.067c2.774-10.709,9.019-19.334,18.738-25.879
			c9.716-6.545,21.218-9.816,34.504-9.816h120.767l-2.677,34.801c-1.787-3.168-6.448-5.502-13.983-6.989
			c-7.538-1.49-15.964-2.233-25.283-2.233h-54.433c-6.35,0-9.918,1.69-10.709,5.058l-1.487,5.948l-0.297,0.596c0,0.2,0,0.4,0,0.594
			c0,2.58,2.774,3.867,8.329,3.867H275.417z"/>
		<path fill="#292C38" d="M410.458,1274.464l0.297,14.873c4.164-5.552,7.735-9.416,10.709-11.602
			c2.974-2.178,6.739-3.271,11.303-3.271h59.193c12.293,0,21.268,2.483,26.919,7.435c5.651,4.96,8.476,11.899,8.476,20.821
			c0,4.564-0.696,9.621-2.081,15.17l-13.386,52.948c-3.374,13.486-9.519,24.092-18.441,31.827
			c-8.925,7.732-21.021,11.599-36.288,11.599h-55.029c-5.554,0-9.325-1.287-11.303-3.867c-1.986-2.575-3.077-5.846-3.274-9.816
			h-0.594l-10.112,40.453c-1.59,6.145-2.38,11.402-2.38,15.767c0,3.368,0.594,6.841,1.784,10.409h-76.147l41.346-166.572
			c1.584-6.145,2.38-11.4,2.38-15.767c0-3.368-0.596-6.839-1.787-10.409H410.458z M392.907,1376.191
			c-0.4,1.787-0.594,3.274-0.594,4.464c0,4.164,2.575,6.245,7.732,6.245h27.963c6.542,0,10.706-3.568,12.493-10.709l15.764-63.655
			c0.594-1.784,0.893-3.271,0.893-4.461c0-4.164-2.677-6.245-8.032-6.245h-27.96c-6.545,0-10.709,3.568-12.493,10.706
			L392.907,1376.191z"/>
		<path fill="#292C38" d="M720.993,1372.027c-3.77,15.073-9.369,25.879-16.807,32.424c-7.435,6.545-18.791,9.816-34.058,9.816
			H560.666c-11.702,0-20.078-1.881-25.135-5.651c-5.055-3.765-7.585-9.713-7.585-17.847c0-4.955,0.893-11.2,2.677-18.741
			l13.983-55.326c3.762-15.067,9.369-25.876,16.804-32.421c7.438-6.545,18.785-9.816,34.058-9.816h109.462
			c11.699,0,20.078,1.887,25.136,5.651c5.058,3.77,7.585,9.621,7.585,17.551c0,5.157-0.893,11.502-2.677,19.035L720.993,1372.027z
			 M599.932,1375.597c-0.402,2.183-0.596,3.97-0.596,5.354c0,3.97,2.677,5.948,8.032,5.948h29.15c3.965,0,6.939-0.841,8.922-2.527
			c1.981-1.684,3.468-4.611,4.464-8.775l15.764-62.464c0.394-1.981,0.594-3.668,0.594-5.058c0-4.164-2.877-6.245-8.625-6.245h-29.15
			c-3.768,0-6.595,0.846-8.476,2.527c-1.889,1.687-3.324,4.611-4.314,8.775L599.932,1375.597z"/>
		<path fill="#292C38" d="M833.431,1274.464l-3.274,22.605h0.594c5.748-8.523,11.502-14.427,17.251-17.698
			c5.754-3.271,13.883-4.908,24.392-4.908h34.208l-11.303,45.807c-4.161-2.774-7.935-4.611-11.303-5.501
			c-3.374-0.893-9.816-1.34-19.332-1.34c-13.683,0-23.01,1.54-27.965,4.611c-4.955,3.077-8.623,9.472-11.003,19.185l-11.303,44.917
			c-1.986,7.732-2.974,13.98-2.974,18.738c0,3.77,0.788,8.032,2.38,12.792l0.294,0.594h-85.666l0.297-0.594
			c3.765-4.361,6.739-8.575,8.925-12.643c2.178-4.062,4.358-10.359,6.542-18.888l18.743-75.554
			c1.981-7.732,2.974-13.98,2.974-18.738c0-3.765-0.793-8.032-2.38-12.792l-0.3-0.594H833.431z"/>
		<path fill="#292C38" d="M944.677,1245.908l70.79-1.784l-7.735,30.34h55.92l-6.836,27.366h-55.92l-18.444,73.767
			c-0.599,2.58-0.888,4.461-0.888,5.651c0,2.183,0.888,3.673,2.674,4.461c1.787,0.796,4.949,1.19,9.522,1.19h24.681
			c5.748,0,10.709-0.544,14.87-1.634c4.173-1.088,8.034-2.33,11.608-3.72l-12.496,32.721h-88.047
			c-10.115,0-18.144-2.083-24.092-6.248s-8.922-11.2-8.922-21.118c0-4.758,0.788-10.21,2.375-16.36l16.957-68.709h-30.041
			l6.842-27.366h30.041L944.677,1245.908z"/>
		<path fill="#AD1A1F" d="M1212.379,1316.107c11.702,0,19.831,1.934,24.392,5.801s6.842,9.272,6.842,16.21
			c0,3.174-0.494,6.944-1.487,11.303l-6.842,27.96c-2.58,10.115-8.134,18.791-16.657,26.029
			c-8.528,7.241-20.031,10.856-34.502,10.856h-130.283l2.974-33.611c6.142,3.174,11.747,5.307,16.801,6.395
			c5.06,1.093,13.339,1.637,24.842,1.637h59.193c3.568,0,6.142-0.544,7.729-1.637c1.587-1.088,2.774-3.021,3.573-5.801l0.594-2.974
			c0-0.394,0.094-0.99,0.294-1.784l0.3-1.19c0-2.974-2.674-4.461-8.029-4.461h-60.98c-11.502,0-19.531-1.934-24.092-5.801
			c-4.567-3.867-6.842-9.269-6.842-16.21c0-3.171,0.494-7.039,1.487-11.602l6.542-27.067c2.774-10.709,9.022-19.334,18.744-25.879
			c9.71-6.545,21.213-9.816,34.502-9.816h120.767l-2.68,34.801c-1.781-3.168-6.442-5.502-13.977-6.989
			c-7.541-1.49-15.964-2.233-25.285-2.233h-54.433c-6.348,0-9.921,1.69-10.709,5.058l-1.487,5.948l-0.3,0.596c0,0.2,0,0.4,0,0.594
			c0,2.58,2.774,3.867,8.329,3.867H1212.379z"/>
		<path fill="#AD1A1F" d="M1331.659,1359.534l-3.274,13.089c-0.4,1.984-0.594,3.67-0.594,5.058c0,6.148,4.361,9.219,13.089,9.219
			h67.522c7.136,0,12.984-0.394,17.545-1.19c4.561-0.788,9.816-2.378,15.769-4.758l-13.683,33.314h-139.805
			c-11.702,0-20.075-1.881-25.136-5.651c-5.055-3.765-7.585-9.713-7.585-17.847c0-4.955,0.893-11.2,2.68-18.741l13.977-55.326
			c3.768-15.067,9.372-25.876,16.807-32.421c7.435-6.545,18.788-9.816,34.058-9.816h106.784c11.702,0,20.081,1.887,25.135,5.651
			c5.055,3.77,7.585,9.621,7.585,17.551c0,5.157-0.893,11.502-2.674,19.035l-10.709,42.833H1331.659z M1387.578,1332.171
			l4.761-19.037c0.394-2.181,0.594-3.965,0.594-5.354c0-3.965-2.68-5.948-8.029-5.948h-28.853c-3.773,0-6.597,0.846-8.478,2.527
			c-1.887,1.687-3.324,4.611-4.317,8.775l-4.755,19.037H1387.578z"/>
		<path fill="#AD1A1F" d="M1504.478,1256.023c1.787-7.735,2.68-13.983,2.68-18.741c0-3.765-0.799-8.129-2.38-13.087v-0.3h77.931
			l-39.562,158.246c-1.986,7.732-2.974,13.98-2.974,18.738c0,3.77,0.788,8.032,2.38,12.792l0.294,0.594h-85.666l0.3-0.594
			c3.768-4.361,6.742-8.575,8.922-12.643c2.181-4.062,4.361-10.359,6.547-18.888L1504.478,1256.023z"/>
		<path fill="#AD1A1F" d="M1609.176,1256.023c1.787-7.735,2.68-13.983,2.68-18.741c0-3.765-0.799-8.129-2.38-13.087v-0.3h77.931
			l-39.562,158.246c-1.986,7.732-2.974,13.98-2.974,18.738c0,3.77,0.788,8.032,2.38,12.792l0.294,0.594h-85.666l0.3-0.594
			c3.768-4.361,6.742-8.575,8.922-12.643c2.181-4.062,4.361-10.359,6.547-18.888L1609.176,1256.023z"/>
		<path fill="#AD1A1F" d="M1867.362,1372.027c-3.773,15.073-9.372,25.879-16.807,32.424c-7.435,6.545-18.793,9.816-34.058,9.816
			h-109.464c-11.702,0-20.075-1.881-25.135-5.651c-5.055-3.765-7.585-9.713-7.585-17.847c0-4.955,0.893-11.2,2.68-18.741
			l13.977-55.326c3.768-15.067,9.372-25.876,16.807-32.421s18.788-9.816,34.058-9.816h109.464c11.697,0,20.075,1.887,25.135,5.651
			c5.055,3.77,7.585,9.621,7.585,17.551c0,5.157-0.893,11.502-2.68,19.035L1867.362,1372.027z M1746.295,1375.597
			c-0.399,2.183-0.594,3.97-0.594,5.354c0,3.97,2.68,5.948,8.029,5.948h29.153c3.962,0,6.941-0.841,8.922-2.527
			c1.981-1.684,3.468-4.611,4.461-8.775l15.769-62.464c0.394-1.981,0.594-3.668,0.594-5.058c0-4.164-2.88-6.245-8.628-6.245h-29.147
			c-3.773,0-6.597,0.846-8.478,2.527c-1.886,1.687-3.324,4.611-4.317,8.775L1746.295,1375.597z"/>
	</g>
	<g>
		<path fill="#292C38" d="M1000.447,497.835c-132.213,0-239.776,107.563-239.776,239.776c0,225.21,202.802,398.88,239.776,429.132
			c36.975-29.132,239.776-203.922,239.776-429.132C1240.223,605.398,1132.66,497.835,1000.447,497.835z M1000.448,932.38
			c-105.402,0-191.154-85.75-191.154-191.152s85.752-191.152,191.154-191.152s191.152,85.75,191.152,191.152
			S1105.85,932.38,1000.448,932.38z"/>
		<path fill="#292C38" d="M1000.447,562.753c-98.412,0-178.474,80.062-178.474,178.474s80.062,178.474,178.474,178.474
			s178.474-80.062,178.474-178.474S1098.859,562.753,1000.447,562.753z M1000.447,897.391c-86.11,0-156.165-70.055-156.165-156.165
			s70.055-156.165,156.165-156.165s156.165,70.055,156.165,156.165C1156.612,827.336,1086.557,897.391,1000.447,897.391z"/>
		<g>
			<g>
				<path fill="#AD1A1F" d="M972.64,694.451c11.524,0,20.901-9.377,20.901-20.904c0-11.524-9.376-20.901-20.901-20.901
					c-11.527,0-20.904,9.376-20.904,20.901C951.737,685.074,961.113,694.451,972.64,694.451z"/>
				<path fill="#AD1A1F" d="M1000.447,599.201c-78.313,0-142.025,63.713-142.025,142.026c0,78.312,63.713,142.025,142.025,142.025
					s142.026-63.713,142.026-142.025C1142.473,662.914,1078.759,599.201,1000.447,599.201z M972.64,640.411
					c18.272,0,33.136,14.864,33.136,33.136s-14.864,33.138-33.136,33.138c-18.272,0-33.139-14.866-33.139-33.138
					S954.368,640.411,972.64,640.411z M938.433,723.743h16.819l9.22,14.319l9.709-14.319h16.181l-17.652,24.665l19.27,27.412
					h-16.917l-10.592-16.133l-10.69,16.133h-16.133l18.78-26.823L938.433,723.743z M945.889,835.583
					c-12.016,3.568-23.675,5.477-34.121,6.458v-13.555c48.311-4.617,111.119-29.974,118.58-128.877h-15.18l11.159-15.026
					l11.158-15.026l11.158,15.026l11.159,15.026h-15.813C1037.693,787.911,989.722,822.567,945.889,835.583z M1072.211,827.897
					l-10.592-16.132l-10.69,16.132h-16.132l18.78-26.823l-17.996-25.253h16.819l9.219,14.319l9.709-14.319h16.181l-17.651,24.665
					l19.269,27.412H1072.211z"/>
			</g>
		</g>
	</g>
	
		<radialGradient id="SVGID_1_" cx="1000.4471" cy="3562.1367" r="382.4656" gradientTransform="matrix(1 0 0 0.1318 0 697.2094)" gradientUnits="userSpaceOnUse">
		<stop  offset="0.043" style="stop-color:#414042;stop-opacity:0.6"/>
		<stop  offset="0.9946" style="stop-color:#FFFFFF;stop-opacity:0"/>
	</radialGradient>
	<ellipse fill="url(#SVGID_1_)" cx="1000.447" cy="1166.743" rx="382.466" ry="50.414"/>
</g>
</svg>
